<?xml version="1.0" encoding="UTF-8" standalone="no"?>
<svg
   xmlns:dc="http://purl.org/dc/elements/1.1/"
   xmlns:cc="http://creativecommons.org/ns#"
   xmlns:rdf="http://www.w3.org/1999/02/22-rdf-syntax-ns#"
   xmlns:svg="http://www.w3.org/2000/svg"
   xmlns="http://www.w3.org/2000/svg"
   xmlns:sodipodi="http://sodipodi.sourceforge.net/DTD/sodipodi-0.dtd"
   xmlns:inkscape="http://www.inkscape.org/namespaces/inkscape"
   id="svg8"
   version="1.1"
   viewBox="0 0 17.15407 24.606251"
   height="24.606251mm"
   width="17.15407mm"
   sodipodi:docname="acorn.svg"
   inkscape:version="0.92.4 5da689c313, 2019-01-14">
  <sodipodi:namedview
     pagecolor="#ffffff"
     bordercolor="#666666"
     borderopacity="1"
     objecttolerance="10"
     gridtolerance="10"
     guidetolerance="10"
     inkscape:pageopacity="0"
     inkscape:pageshadow="2"
     inkscape:window-width="1600"
     inkscape:window-height="873"
     id="namedview8"
     showgrid="false"
     fit-margin-top="0"
     fit-margin-left="0"
     fit-margin-right="0"
     fit-margin-bottom="0"
     inkscape:zoom="0.28771164"
     inkscape:cx="-172.87152"
     inkscape:cy="410.13287"
     inkscape:window-x="0"
     inkscape:window-y="0"
     inkscape:window-maximized="1"
     inkscape:current-layer="svg8" />
  <defs
     id="defs2" />
  <metadata
     id="metadata5">
    <rdf:RDF>
      <cc:Work
         rdf:about="">
        <dc:format>image/svg+xml</dc:format>
        <dc:type
           rdf:resource="http://purl.org/dc/dcmitype/StillImage" />
        <dc:title></dc:title>
      </cc:Work>
    </rdf:RDF>
  </metadata>
  <g
     transform="matrix(0.11337789,0,0,0.11337789,19.54965,-5.0654327)"
     id="layer1">
    <path
       style="fill:#e5a045;stroke-width:0.5291667"
       d="m -103.1119,261.47429 c -5.50282,-0.68426 -9.97154,-2.01658 -15.16244,-4.52058 -24.02819,-11.59078 -39.37536,-44.76454 -43.63275,-94.31458 l -0.64869,-7.54985 -2.11348,-1.1814 c 51.07369,-15.94647 142.067195,-2.79599 134.938774,0.39245 -1.61662,0.52255 -1.68422,0.6614 -1.81006,3.71783 -0.66933,16.25657 -4.74701,38.93014 -9.583,53.28535 -10.90806,32.37968 -28.51339,49.0974 -52.99252,50.3208 -3.05594,0.15273 -7.104064,0.0852 -8.995834,-0.15002 z"
       id="path830"
       inkscape:connector-curvature="0" />
    <path
       style="fill:#794405;stroke-width:0.55047756"
       d="m -166.33095,154.66343 c -4.74183,-1.41976 -6.10404,-5.53489 -6.09815,-18.42205 0.005,-12.19214 1.74927,-22.18868 5.19659,-29.79157 2.13859,-4.71657 4.00398,-7.020171 7.9513,-9.819181 10.80285,-7.660225 25.39406,-11.687552 48.9441,-13.509077 3.88687,-0.300638 7.3254,-0.7063 7.6412,-0.901472 0.38258,-0.236453 0.47147,-3.589616 0.26638,-10.048777 -0.33458,-10.537844 -1.174,-15.199592 -3.47789,-19.314561 l -1.39401,-2.48986 1.82963,-1.537303 c 3.71363,-3.120302 6.350168,-4.313742 9.134551,-4.134801 l 2.603667,0.167328 -0.124718,5.780015 c -0.06866,3.179007 -0.553238,10.36274 -1.076963,15.96385 -0.523715,5.601109 -0.963032,11.422409 -0.976233,12.936223 l -0.02403,2.752387 3.02763,0.388659 c 1.665196,0.213762 6.950457,0.775595 11.745021,1.248517 15.989416,1.577139 31.85558,5.540281 41.377777,10.335585 5.037447,2.536815 10.179795,6.437078 12.055334,9.143488 1.855066,2.67686 3.839063,8.29306 5.421807,15.34773 1.028486,4.58423 1.201088,6.98735 1.176652,16.38187 -0.0259,9.96323 -0.142642,11.30175 -1.228156,14.08413 -2.274078,5.82888 -3.998995,6.40478 -14.674959,4.89949 -31.826192,-4.48741 -72.56212,-4.38095 -117.80221,0.30788 -8.60271,0.89161 -9.24638,0.90458 -11.49435,0.2315 z"
       id="path828"
       inkscape:connector-curvature="0" />
  </g>
</svg>
