<?xml version="1.0" encoding="UTF-8" standalone="no"?>
<!-- Created with Inkscape (http://www.inkscape.org/) -->

<svg
   xmlns:dc="http://purl.org/dc/elements/1.1/"
   xmlns:cc="http://creativecommons.org/ns#"
   xmlns:rdf="http://www.w3.org/1999/02/22-rdf-syntax-ns#"
   xmlns:svg="http://www.w3.org/2000/svg"
   xmlns="http://www.w3.org/2000/svg"
   xmlns:sodipodi="http://sodipodi.sourceforge.net/DTD/sodipodi-0.dtd"
   xmlns:inkscape="http://www.inkscape.org/namespaces/inkscape"
   width="1508.7002"
   height="388.35672"
   viewBox="0 0 399.17692 102.75272"
   version="1.1"
   id="svg8"
   inkscape:version="0.92.4 5da689c313, 2019-01-14"
   sodipodi:docname="logo.svg"
   inkscape:export-filename="/home/paul/Documents/Universiteit/2019/QueerUS/Web/static/images/logo.png"
   inkscape:export-xdpi="18.539656"
   inkscape:export-ydpi="18.539656">
  <defs
     id="defs2" />
  <sodipodi:namedview
     id="base"
     pagecolor="#ffffff"
     bordercolor="#666666"
     borderopacity="1.0"
     inkscape:pageopacity="0.0"
     inkscape:pageshadow="2"
     inkscape:zoom="0.35"
     inkscape:cx="558.28819"
     inkscape:cy="-148.65588"
     inkscape:document-units="mm"
     inkscape:current-layer="layer1"
     showgrid="false"
     units="px"
     fit-margin-top="10"
     fit-margin-right="10"
     fit-margin-bottom="10"
     fit-margin-left="10"
     inkscape:window-width="1366"
     inkscape:window-height="741"
     inkscape:window-x="117"
     inkscape:window-y="900"
     inkscape:window-maximized="1" />
  <metadata
     id="metadata5">
    <rdf:RDF>
      <cc:Work
         rdf:about="">
        <dc:format>image/svg+xml</dc:format>
        <dc:type
           rdf:resource="http://purl.org/dc/dcmitype/StillImage" />
        <dc:title></dc:title>
      </cc:Work>
    </rdf:RDF>
  </metadata>
  <g
     inkscape:label="Layer 1"
     inkscape:groupmode="layer"
     id="layer1"
     transform="translate(142.11614,136.85176)">
    <path
       style="fill:#e4007c;stroke-width:1"
       d="m -94.400556,-36.775556 c -0.153341,-0.01672 -0.726798,-0.06848 -1.274386,-0.114906 -4.082704,-0.346158 -9.358068,-1.666017 -13.500378,-3.377693 -1.60795,-0.664432 -4.44102,-2.065688 -5.89398,-2.915201 -7.57875,-4.431113 -13.85028,-10.793232 -18.1471,-18.40918 -2.75035,-4.874882 -4.68209,-10.329673 -5.62217,-15.875632 -0.78254,-4.616585 -0.84073,-10.012041 -0.15972,-14.814588 2.17985,-15.373974 11.50704,-28.708764 25.28309,-36.146284 8.64716,-4.66851 18.641018,-6.58194 28.556967,-5.46755 4.516223,0.50755 9.091033,1.64859 13.291651,3.3152 4.770769,1.8928 9.114373,4.50188 13.148545,7.89794 1.32258,1.11338 4.533329,4.33569 5.609845,5.63007 6.760565,8.12863 10.453696,17.443449 11.194721,28.235327 0.102122,1.487368 0.101963,5.04764 0,6.531162 -0.384723,5.580615 -1.66504,10.98272 -3.789258,15.988314 -0.529623,1.24801 -2.034172,4.097907 -2.034172,4.097907 0,0 -29.268928,-18.823787 -42.043659,-28.462938 -0.72863,-0.246537 -0.803847,-0.255951 -2.031036,-0.254198 -1.212153,0.0018 -1.311348,0.01394 -2.031673,0.251872 -2.001245,0.660777 -3.471847,2.092807 -4.198487,4.088316 -0.19775,0.543121 -0.21404,0.682499 -0.21725,1.861453 -0.004,1.238283 0.004,1.295806 0.25821,2.031031 0.14398,0.416162 0.39399,0.953789 0.55568,1.194724 0.60583,0.902742 1.853954,2.03891 2.925471,2.663105 11.301679,8.01367 22.110454,15.839934 33.332832,23.936857 0.781563,0.787281 1.149782,1.320898 1.486276,2.153948 1.00831,2.496348 0.06332,5.260149 -2.453561,7.176217 -5.66453,4.312255 -15.347242,7.680448 -24.838775,8.640327 -1.224978,0.123888 -6.631477,0.229284 -7.407285,0.14442 z m 49.249093,-9.954518 5.078977,-10.20969 16.857685,11.632676 z"
       id="path4529"
       inkscape:connector-curvature="0"
       sodipodi:nodetypes="cccccsssscccccccccccccccccsccccccc" />
    <g
       aria-label="QueerUS"
       style="font-style:normal;font-weight:normal;font-size:56.87015152px;line-height:1.25;font-family:sans-serif;letter-spacing:0px;word-spacing:0px;fill:#ffffff;fill-opacity:1;stroke:none;stroke-width:1.42175376"
       id="text868">
      <path
         d="m 12.272501,-83.863084 q 0,6.192405 4.387443,10.579848 4.387443,4.387443 10.607616,4.387443 6.192404,0 10.579848,-4.387443 4.387443,-4.387443 4.387443,-10.579848 0,-6.220172 -4.387443,-10.607616 -4.387444,-4.387443 -10.579848,-4.387443 -6.220173,0 -10.607616,4.387443 -4.387443,4.387444 -4.387443,10.607616 z m 36.737895,0 q 0,6.303479 -3.387772,11.579519 -3.221161,5.164964 -7.525299,7.303149 l 7.164306,10.246624 H 36.98658 l -5.442651,-7.802985 q -1.777192,0.41653 -4.276369,0.41653 -4.415212,0 -8.4972,-1.693887 -3.887608,-1.693886 -6.88662,-4.692898 -2.9990122,-2.999012 -4.6651299,-6.88662 -1.721655,-4.05422 -1.721655,-8.469432 0,-4.415212 1.721655,-8.469431 1.6661177,-3.915377 4.6651299,-6.914389 2.999012,-2.999016 6.88662,-4.665126 4.081988,-1.72166 8.4972,-1.72166 4.415212,0 8.469432,1.72166 3.887608,1.66611 6.88662,4.665126 2.999012,2.999012 4.692898,6.914389 1.693886,4.054219 1.693886,8.469431 z"
         style="font-style:normal;font-variant:normal;font-weight:bold;font-stretch:normal;font-family:'Ginora Sans';-inkscape-font-specification:'Ginora Sans Bold';fill:#ffffff;stroke-width:1.42175376"
         id="path870" />
      <path
         d="m 56.146934,-93.498798 h 6.470091 v 18.216221 q 0,2.638019 1.860498,4.498517 1.860498,1.860499 4.498518,1.860499 2.638019,0 4.498518,-1.860499 1.860498,-1.860498 1.860498,-4.498517 v -18.216221 h 6.47009 v 30.656566 h -6.47009 v -1.249588 q -2.693557,1.61058 -6.359016,1.638349 -5.27604,0 -9.052573,-3.776533 -3.776534,-3.776534 -3.776534,-9.052573 z"
         style="font-style:normal;font-variant:normal;font-weight:bold;font-stretch:normal;font-family:'Ginora Sans';-inkscape-font-specification:'Ginora Sans Bold';fill:#ffffff;stroke-width:1.42175376"
         id="path872" />
      <path
         d="m 111.62866,-82.641264 q -0.69422,-1.4162 -2.72133,-2.999012 -2.41587,-1.749423 -5.38711,-1.749423 -2.99901,0 -5.387114,1.749423 -1.971573,1.610581 -2.693557,2.999012 z m -8.10844,-11.218526 q 6.47009,0 11.07968,4.609592 4.60959,4.609593 4.60959,11.079683 l -0.0555,1.999341 H 94.495415 q 0.360993,2.277028 2.776863,4.803973 2.63802,2.44364 6.247942,2.44364 2.58248,0 4.83174,-1.4162 2.13819,-1.277357 3.77653,-4.47075 l 5.97026,2.582483 q -2.49918,4.998353 -6.22017,7.330918 -3.80431,2.443639 -8.35836,2.443639 -6.470091,0 -11.079683,-4.609592 -4.637361,-4.609593 -4.637361,-11.107452 0,-6.47009 4.637361,-11.079683 4.609592,-4.609592 11.079683,-4.609592 z"
         style="font-style:normal;font-variant:normal;font-weight:bold;font-stretch:normal;font-family:'Ginora Sans';-inkscape-font-specification:'Ginora Sans Bold';fill:#ffffff;stroke-width:1.42175376"
         id="path874" />
      <path
         d="m 147.72787,-82.641264 q -0.69421,-1.4162 -2.72132,-2.999012 -2.41587,-1.749423 -5.38712,-1.749423 -2.99901,0 -5.38711,1.749423 -1.97157,1.610581 -2.69356,2.999012 z m -8.10844,-11.218526 q 6.47009,0 11.07969,4.609592 4.60959,4.609593 4.60959,11.079683 l -0.0555,1.999341 h -24.65854 q 0.36099,2.277028 2.77686,4.803973 2.63802,2.44364 6.24794,2.44364 2.58248,0 4.83174,-1.4162 2.13819,-1.277357 3.77654,-4.47075 l 5.97025,2.582483 q -2.49917,4.998353 -6.22017,7.330918 -3.8043,2.443639 -8.35836,2.443639 -6.47009,0 -11.07968,-4.609592 -4.63736,-4.609593 -4.63736,-11.107452 0,-6.47009 4.63736,-11.079683 4.60959,-4.609592 11.07968,-4.609592 z"
         style="font-style:normal;font-variant:normal;font-weight:bold;font-stretch:normal;font-family:'Ginora Sans';-inkscape-font-specification:'Ginora Sans Bold';fill:#ffffff;stroke-width:1.42175376"
         id="path876" />
      <path
         d="m 175.77418,-93.85979 v 6.470091 h -1.63835 q -2.61025,0 -4.47075,1.860498 -1.86049,1.860498 -1.86049,4.498517 v 18.188452 h -6.47009 v -30.656566 h 6.47009 v 1.110745 q 2.97124,-1.388431 6.33124,-1.471737 z"
         style="font-style:normal;font-variant:normal;font-weight:bold;font-stretch:normal;font-family:'Ginora Sans';-inkscape-font-specification:'Ginora Sans Bold';fill:#ffffff;stroke-width:1.42175376"
         id="path878" />
      <path
         d="m 215.76101,-104.85617 v 25.324992 q 0,7.192075 -5.1372,12.329272 -5.10942,5.109427 -12.3015,5.109427 -7.21984,0 -12.32927,-5.109427 -5.10943,-5.137197 -5.10943,-12.329272 v -25.324992 h 6.5534 v 25.324992 q 0,4.498518 3.19339,7.691911 3.16563,3.165623 7.69191,3.165623 4.49852,0 7.66414,-3.165623 3.1934,-3.193393 3.1934,-7.691911 v -25.324992 z"
         style="font-style:normal;font-variant:normal;font-weight:bold;font-stretch:normal;font-family:'Ginora Sans';-inkscape-font-specification:'Ginora Sans Bold';fill:#ffffff;stroke-width:1.42175376"
         id="path880" />
      <path
         d="m 239.5032,-62.092479 q -5.22051,0 -9.46911,-2.471408 -5.19273,-3.02678 -7.19207,-9.802326 l 6.27571,-1.832729 q 1.24959,4.331906 4.33191,6.053561 2.63802,1.499506 6.08133,1.499506 0.55537,0 0.91636,-0.02777 0.36099,-0.02777 0.8886,-0.138843 1.4995,-0.222149 2.72132,-0.749753 3.24893,-1.527274 3.55439,-5.164965 0.13884,-1.804961 -1.08298,-3.165623 -2.02711,-2.388103 -6.72001,-2.693557 -9.0248,-0.61091 -13.21787,-4.359675 -3.30446,-2.971243 -3.30446,-7.580836 0,-6.136867 4.85951,-9.830094 4.27637,-3.2767 10.30216,-3.2767 7.16431,0 11.99605,5.08166 1.4995,1.63835 2.63802,3.582154 0.36099,0.610909 1.33289,2.887937 l -6.08133,2.304796 q -0.80529,-1.666118 -1.24959,-2.471408 -0.4443,-0.80529 -1.38843,-1.749423 -2.94347,-3.082318 -7.24761,-3.082318 -1.30513,0 -2.69356,0.333223 -1.61058,0.333224 -2.86017,1.082977 -3.05455,1.749424 -3.05455,5.137196 0,4.720667 10.44101,5.387114 7.41422,0.499835 11.24629,4.915047 2.97125,3.498848 2.63802,7.997365 -0.47206,5.914718 -5.08166,9.246954 -3.99868,2.887937 -9.52464,2.887937 z"
         style="font-style:normal;font-variant:normal;font-weight:bold;font-stretch:normal;font-family:'Ginora Sans';-inkscape-font-specification:'Ginora Sans Bold';fill:#ffffff;stroke-width:1.42175376"
         id="path882" />
    </g>
  </g>
</svg>
